<?xml version="1.0" standalone="no"?><!DOCTYPE svg PUBLIC "-//W3C//DTD SVG 1.1//EN" "http://www.w3.org/Graphics/SVG/1.1/DTD/svg11.dtd"><svg t="1638072616046" class="icon" viewBox="0 0 1024 1024" version="1.1" xmlns="http://www.w3.org/2000/svg" p-id="975" xmlns:xlink="http://www.w3.org/1999/xlink" width="200" height="200"><defs><style type="text/css"></style></defs><path d="M1004.8 123.733c19.2 12.8 23.467 40.534 10.667 59.734-12.8 19.2-40.534 23.466-59.734 10.666-6.4-4.266-53.333-32-119.466 14.934L908.8 281.6c17.067 17.067 17.067 42.667 0 59.733L814.933 435.2C857.6 576 819.2 731.733 712.533 838.4 633.6 919.467 531.2 960 426.667 960S219.733 919.467 140.8 840.533c-160-157.866-160-413.866 0-571.733C247.467 162.133 403.2 123.733 544 166.4l93.867-93.867c17.066-17.066 42.666-17.066 59.733 0l78.933 76.8c98.134-76.8 189.867-51.2 228.267-25.6z m-238.933 243.2L819.2 313.6 667.733 162.133 614.4 215.467l151.467 151.466zM652.8 780.8c87.467-87.467 115.2-215.467 76.8-330.667L533.333 253.867C416 213.333 288 241.067 200.533 328.533 76.8 452.267 76.8 657.067 200.533 780.8s326.4 125.867 452.267 0z" fill="#d81e06" p-id="976"></path><path d="M426.667 298.667c-140.8 0-256 115.2-256 256 0 23.466 19.2 42.666 42.666 42.666S256 578.133 256 554.667C256 460.8 332.8 384 426.667 384c23.466 0 42.666-19.2 42.666-42.667s-19.2-42.666-42.666-42.666" fill="#d81e06" p-id="977"></path></svg>