<?xml version="1.0" standalone="no"?><!DOCTYPE svg PUBLIC "-//W3C//DTD SVG 1.1//EN" "http://www.w3.org/Graphics/SVG/1.1/DTD/svg11.dtd"><svg t="1638072624324" class="icon" viewBox="0 0 1024 1024" version="1.1" xmlns="http://www.w3.org/2000/svg" p-id="1258" xmlns:xlink="http://www.w3.org/1999/xlink" width="200" height="200"><defs><style type="text/css"></style></defs><path d="M916.83 660.66A347.42 347.42 0 0 0 682 446.65v-100a26 26 0 0 0 15.11-7.65 27 27 0 0 0 7.89-19.09v-61.1C705 152 618.56 65.08 511.74 65.08 403.55 65.08 316 153.1 316 261.29v58.62a27 27 0 0 0 23 26.71v100.84C191 488.3 86 623.89 86 778.5v153.42C86 946.83 98.54 959 113.46 959h797.08c14.91 0 27.46-12.17 27.46-27.08V778.5a340.39 340.39 0 0 0-21.17-117.84zM147.6 715h236.53c38.5 20 81.67 31.31 126.07 31.31A273.73 273.73 0 0 0 636.31 715h240.08a281.47 281.47 0 0 1 7.61 63.5v8.5H140v-8.5a281.84 281.84 0 0 1 7.6-63.5zM370 261.29c0-2-0.44-4.29-0.35-6.29h281.76c0 1-0.41 2.64-0.41 3.82v34.1H370z m258 85.62v122.56a117.5 117.5 0 1 1-235 0V346.91zM510.48 641.39c83.7 0 153.61-60.13 168.84-139.46a287.26 287.26 0 0 1 42 16.75 215.22 215.22 0 0 1-422 1.62 287.47 287.47 0 0 1 42.42-17.48c15.65 78.89 85.35 138.57 168.74 138.57zM858.3 661H706.8a268.32 268.32 0 0 0 62.89-112.11A293.29 293.29 0 0 1 858.3 661zM511.72 118.78c56.56 0 105.38 34.22 127.34 82.22H382.8c22.67-48 71.93-82.22 128.92-82.22zM251.36 551.16A266.48 266.48 0 0 0 313.62 661h-148a292.16 292.16 0 0 1 85.74-109.84zM140 905v-64h744v64z" fill="#d81e06" p-id="1259"></path></svg>